<svg width="18" height="18" viewBox="0 0 18 18" fill="none" xmlns="http://www.w3.org/2000/svg">
<path d="M6.47197 10.208L11.936 13.392M11.928 4.608L6.47197 7.792M16.4 3.4C16.4 4.72548 15.3255 5.8 14 5.8C12.6745 5.8 11.6 4.72548 11.6 3.4C11.6 2.07452 12.6745 1 14 1C15.3255 1 16.4 2.07452 16.4 3.4ZM6.79997 9C6.79997 10.3255 5.72545 11.4 4.39997 11.4C3.07449 11.4 1.99997 10.3255 1.99997 9C1.99997 7.67452 3.07449 6.6 4.39997 6.6C5.72545 6.6 6.79997 7.67452 6.79997 9ZM16.4 14.6C16.4 15.9255 15.3255 17 14 17C12.6745 17 11.6 15.9255 11.6 14.6C11.6 13.2745 12.6745 12.2 14 12.2C15.3255 12.2 16.4 13.2745 16.4 14.6Z" stroke="currentColor" stroke-width="1.4" stroke-linecap="round" stroke-linejoin="round"/>
</svg>
