<svg width="18" height="18" viewBox="0 0 18 18" fill="none" xmlns="http://www.w3.org/2000/svg">
<path d="M6.42596 13.2956L6.45659 13.256L6.47072 13.267C6.68762 13.4351 6.90343 13.6024 7.11556 13.7705M6.42596 13.2956L10.8845 13.7705M6.42596 13.2956L6.45658 13.256C5.52251 12.5322 4.56925 11.7933 3.78225 10.9025C2.82851 9.82303 2.16628 8.56738 2.16628 6.93913C2.16628 5.34879 3.06021 4.01787 4.27621 3.45916C5.45385 2.91808 7.04306 3.05655 8.56173 4.64257L8.59784 4.60799L8.56173 4.64258C8.67636 4.76227 8.83458 4.82997 9 4.82997C9.16542 4.82997 9.32364 4.76227 9.43827 4.64258L9.40216 4.60799L9.43827 4.64257C10.9569 3.05655 12.5461 2.91808 13.7238 3.45916C14.9398 4.01787 15.8337 5.34879 15.8337 6.93913C15.8337 8.56738 15.1715 9.82303 14.2177 10.9025L14.2552 10.9356L14.2177 10.9025C13.4308 11.7933 12.4775 12.5322 11.5434 13.256L11.5741 13.2956M6.42596 13.2956H11.5741M7.11556 13.7705L7.0845 13.8097L7.11555 13.7705C7.11555 13.7705 7.11556 13.7705 7.11556 13.7705ZM7.11556 13.7705C7.50751 14.081 7.85399 14.3511 8.18707 14.5467C8.52034 14.7424 8.78236 14.828 9 14.828C9.21764 14.828 9.47966 14.7424 9.81293 14.5467C10.146 14.3511 10.4925 14.081 10.8845 13.7705M10.8845 13.7705C11.0966 13.6024 11.3123 13.4352 11.5292 13.2671M10.8845 13.7705L11.5292 13.2671M11.5741 13.2956L11.5434 13.256M11.5741 13.2956L11.5434 13.256M5.77829 14.2112L5.77883 14.2116C5.9913 14.376 6.1974 14.5355 6.39343 14.6908C6.77462 14.9929 7.18384 15.315 7.59855 15.5586L9 3.43963C7.2794 1.89226 5.35271 1.6758 3.79126 2.39323C2.14211 3.15097 1 4.91042 1 6.93913C1 8.93304 1.82642 10.4541 2.91012 11.6807C3.77775 12.6627 4.83968 13.4847 5.77765 14.2107L5.77829 14.2112ZM5.77829 14.2112L5.74769 14.2507L5.7454 14.2489C4.80843 13.5237 3.74341 12.6994 2.87265 11.7138C1.7834 10.4809 0.95 8.94857 0.95 6.93913C0.95 4.89187 2.10261 3.11409 3.77039 2.3478C5.34154 1.62591 7.27447 1.84025 9 3.37257C10.7256 1.84025 12.6584 1.62591 14.2296 2.3478C15.8974 3.11409 17.05 4.89187 17.05 6.93913C17.05 8.94857 16.2166 10.4809 15.1274 11.7138C14.2565 12.6994 13.1914 13.5238 12.2544 14.2491L12.2523 14.2507L12.2523 14.2507C12.0396 14.4153 11.8335 14.5748 11.6376 14.73L11.6066 14.6908L11.6376 14.73C11.2568 15.0317 10.845 15.356 10.4268 15.6017L10.4015 15.5586L10.4268 15.6017C10.0087 15.8472 9.52654 16.05 9 16.05C8.47346 16.05 7.99129 15.8472 7.57323 15.6017L7.57322 15.6017C7.15503 15.356 6.74314 15.0318 6.36238 14.73C6.16654 14.5748 5.9606 14.4155 5.748 14.2509L5.74769 14.2507L5.77829 14.2112ZM11.5434 13.256L11.5292 13.2671M11.5434 13.256L11.5292 13.2671" fill="#343C4D" stroke="#343C4D" stroke-width="0.1"/>
</svg>
