<svg width="392" height="451" viewBox="0 0 392 451" fill="none" xmlns="http://www.w3.org/2000/svg">
<path fill-rule="evenodd" clip-rule="evenodd" d="M70 0C58.9543 0 50 8.9543 50 20V35C50 46.0457 41.0457 55 30 55H20C8.9543 55 0 63.9543 0 75V431C0 442.046 8.95431 451 20 451H337C348.046 451 357 442.046 357 431V381C357 372.716 363.716 366 372 366V366C383.046 366 392 357.046 392 346V116C392 104.954 383.046 96 372 96V96C363.716 96 357 89.2843 357 81V55V20C357 8.9543 348.046 0 337 0H70Z" fill="white"/>
</svg>
